<svg width="44" height="44" viewBox="0 0 44 44" fill="none" xmlns="http://www.w3.org/2000/svg">
<path d="M40 30C41.1046 30 42 30.8954 42 32C42 33.1046 41.1046 34 40 34H4C2.89543 34 2 33.1046 2 32C2 30.8954 2.89543 30 4 30H40Z" fill="black"/>
<path d="M40 20C41.1046 20 42 20.8954 42 22C42 23.1046 41.1046 24 40 24H4C2.89543 24 2 23.1046 2 22C2 20.8954 2.89543 20 4 20H40Z" fill="black"/>
<path d="M40 10C41.1046 10 42 10.8954 42 12C42 13.1046 41.1046 14 40 14H4C2.89543 14 2 13.1046 2 12C2 10.8954 2.89543 10 4 10H40Z" fill="black"/>
</svg>
